<?xml version="1.0" encoding="UTF-8"?>
<svg version="1.1" xmlns="http://www.w3.org/2000/svg" width="680" height="680">
<path d="M0 0 C224.4 0 448.8 0 680 0 C680 224.4 680 448.8 680 680 C455.6 680 231.2 680 0 680 C0 455.6 0 231.2 0 0 Z " fill="#FEFEFE" transform="translate(0,0)"/>
<path d="M0 0 C1.12627304 -0.00350464 2.25254608 -0.00700928 3.41294861 -0.01062012 C7.11992639 -0.019391 10.82671182 -0.01360377 14.53369141 -0.00683594 C17.1214705 -0.00818411 19.70924935 -0.01012591 22.29702759 -0.01263428 C27.71546072 -0.01557942 33.13382226 -0.01150058 38.55224609 -0.00195312 C44.79385182 0.00891864 51.03532673 0.00541141 57.27692926 -0.00560594 C63.30720263 -0.01581959 69.33741264 -0.01468205 75.36769485 -0.00884247 C77.92164758 -0.00751262 80.47560366 -0.00913031 83.02955246 -0.01380157 C86.60702973 -0.01890849 90.18425978 -0.01109749 93.76171875 0 C94.80723404 -0.00404846 95.85274933 -0.00809692 96.9299469 -0.01226807 C105.79989306 0.0384326 114.44448468 0.37064804 121.51025391 6.25878906 C128.74286022 13.69230111 127.79384732 22.78041007 127.75076294 32.5018158 C127.75163562 33.96391247 127.75338775 35.42600884 127.75594127 36.88810354 C127.76040656 40.8970839 127.75242238 44.90595708 127.74238515 48.91492379 C127.73374116 53.2413578 127.73667148 57.56778586 127.7381897 61.89422607 C127.73923795 69.38718533 127.7329676 76.88010974 127.72171402 84.37306023 C127.70545387 95.20657895 127.70025048 106.04008084 127.69773804 116.87361044 C127.69336175 134.45066196 127.68005442 152.0276949 127.66113281 169.60473633 C127.64277232 186.67830309 127.62861664 203.75186481 127.62011719 220.82543945 C127.61959174 221.87800983 127.61906629 222.9305802 127.61852492 224.01504665 C127.61591483 229.29552933 127.61338742 234.57601204 127.61090112 239.85649478 C127.59017066 283.65727604 127.55330199 327.45802294 127.51025391 371.25878906 C159.19025391 371.25878906 190.87025391 371.25878906 223.51025391 371.25878906 C223.51025391 365.64878906 223.51025391 360.03878906 223.51025391 354.25878906 C217.57025391 354.25878906 211.63025391 354.25878906 205.51025391 354.25878906 C205.44241429 342.90591619 205.38740085 331.55317847 205.35481739 320.20014858 C205.33917714 314.92819613 205.3179687 309.65638983 205.28393555 304.38452148 C205.25128379 299.29464854 205.23338855 294.20491598 205.22562218 289.11494637 C205.22008913 287.175322 205.20928441 285.23570511 205.19306374 283.29614067 C205.17121221 280.5744569 205.16829021 277.85334951 205.16967773 275.1315918 C205.15889191 274.33389374 205.14810608 273.53619568 205.13699341 272.71432495 C205.18126522 264.66220756 207.97756121 259.06136921 213.51025391 253.25878906 C216.09675509 251.5066431 217.40427027 251.26311493 220.57275391 251.13378906 C223.56808289 250.61672882 223.56808289 250.61672882 224.42041016 248.59472656 C224.90564391 247.17879857 225.36852183 245.7550505 225.81103516 244.32519531 C227.2546326 240.05892129 229.64892354 237.77192204 233.44775391 235.50878906 C237.81904727 233.72458769 241.78414198 233.1358877 246.48600769 233.10488892 C247.95132431 233.09198822 247.95132431 233.09198822 249.44624329 233.0788269 C250.50659286 233.07456696 251.56694244 233.07030701 252.65942383 233.06591797 C253.78525879 233.05774048 254.91109375 233.04956299 256.07104492 233.0411377 C259.79426549 233.01633977 263.51744807 232.99978205 267.24072266 232.98535156 C268.51446558 232.98002789 269.7882085 232.97470421 271.1005497 232.96921921 C276.45619639 232.94800327 281.81182989 232.92887367 287.16750622 232.91759682 C294.81753239 232.90137736 302.46704921 232.8682304 310.11688346 232.81119597 C316.16157009 232.76768029 322.20602652 232.75183729 328.25087929 232.74546432 C330.81324197 232.73875964 333.37559747 232.72355819 335.93785667 232.69957352 C339.53033226 232.66786318 343.12153183 232.66789492 346.71411133 232.67529297 C347.76433975 232.65888763 348.81456818 232.6424823 349.8966217 232.62557983 C357.04660034 232.68559835 362.55690891 234.19279769 368.51025391 238.25878906 C374.66994402 244.67709059 374.65917403 251.24326741 374.65742493 259.75224304 C374.66110161 260.71317787 374.6647783 261.67411269 374.66856641 262.66416675 C374.67958656 265.88671229 374.68344425 269.10922556 374.68725586 272.33178711 C374.69352172 274.64139406 374.70016863 276.95100001 374.70716858 279.26060486 C374.72819507 286.84723205 374.73856899 294.43385942 374.74853516 302.02050781 C374.7525831 304.6332532 374.75670004 307.24599849 374.76088524 309.85874367 C374.77775108 320.72684687 374.79238617 331.59494717 374.79963398 342.46306133 C374.80154373 345.28095692 374.80346409 348.09885249 374.80541992 350.91674805 C374.80590366 351.61708252 374.8063874 352.317417 374.8068858 353.03897373 C374.81518391 364.38070466 374.84051928 375.72233007 374.8730006 387.06401493 C374.90610651 398.71917343 374.92375335 410.3742729 374.92727822 422.02947837 C374.92962832 428.56908176 374.93858409 435.1085182 374.9637394 441.64807701 C374.98702785 447.80161222 374.99125 453.95487063 374.98097801 460.10843849 C374.98048275 462.36344448 374.98680019 464.61846413 375.00053406 466.87342834 C375.0182736 469.95942108 375.01113614 473.04442263 374.9980011 476.13041687 C375.01445497 477.45900405 375.01445497 477.45900405 375.03124124 478.81443137 C374.95805132 485.96982135 373.43971133 493.23500206 368.32666016 498.51269531 C367.58287109 498.94453125 366.83908203 499.37636719 366.07275391 499.82128906 C365.33154297 500.27632812 364.59033203 500.73136719 363.82666016 501.20019531 C361.51025391 502.25878906 361.51025391 502.25878906 358.85009766 502.64550781 C356.36473569 503.01174075 356.36473569 503.01174075 355.32275391 505.14941406 C355.05462891 505.92800781 354.78650391 506.70660156 354.51025391 507.50878906 C352.58293156 512.30805023 350.6234434 515.71370569 345.79682928 518.10916579 C338.46099997 520.8639691 331.175969 520.67797576 323.43516541 520.63973999 C321.90691992 520.64320027 320.37867693 520.64796732 318.85043913 520.65392172 C314.66756741 520.66641041 310.48490182 520.66027111 306.30202949 520.65096307 C301.78459604 520.64416422 297.26719758 520.65465791 292.74977112 520.66290283 C283.90697651 520.67623311 275.06425834 520.67336566 266.22146075 520.66466491 C259.03447558 520.65788643 251.84751182 520.65697235 244.66052437 520.66023636 C243.6371699 520.66069606 242.61381544 520.66115576 241.55945023 520.66162939 C239.48045988 520.66258857 237.40146953 520.66356121 235.3224792 520.66454716 C215.83442488 520.67309888 196.34641292 520.66327011 176.85836554 520.64714606 C160.13903564 520.63374107 143.41976823 520.63607289 126.70043945 520.64990234 C107.27998992 520.66595854 87.8595775 520.67227704 68.43912226 520.66306555 C66.36813741 520.66210991 64.29715254 520.6611668 62.22616768 520.66023636 C61.20722747 520.65977353 60.18828725 520.65931071 59.13847006 520.65883385 C51.96013713 520.65624424 44.78182775 520.66061432 37.60349846 520.66767502 C28.85557677 520.67609055 20.10773584 520.67380864 11.3598234 520.65783279 C6.89706235 520.64995113 2.43443592 520.64685674 -2.02832413 520.65678024 C-6.11482846 520.66572966 -10.20107357 520.66079027 -14.28755444 520.64484759 C-15.76453517 520.64150086 -17.24153787 520.64319145 -18.71850444 520.65047495 C-28.09089693 520.69314287 -34.73862052 520.21703706 -42.80224609 515.19628906 C-50.55535818 506.72195725 -48.91227982 493.98987141 -48.87069702 483.25360107 C-48.87415618 481.31058783 -48.87892248 479.36757656 -48.88487875 477.42456937 C-48.89738242 472.09995318 -48.89122123 466.77549866 -48.8819201 461.45088196 C-48.87512758 455.70309361 -48.88561173 449.9553329 -48.89385986 444.20755005 C-48.90719617 432.9545431 -48.90432018 421.7015962 -48.89562194 410.44858691 C-48.88884676 401.30508778 -48.88792796 392.16160547 -48.89119339 383.01810455 C-48.89165309 381.71677201 -48.89211279 380.41543946 -48.89258642 379.07467259 C-48.89354559 376.43109232 -48.89451823 373.78751204 -48.89550419 371.14393178 C-48.90381363 347.06602617 -48.89519786 322.98815215 -48.8794764 298.91025168 C-48.86523338 276.92940807 -48.86651965 254.9486166 -48.88085938 232.96777344 C-48.89692042 208.26587569 -48.90324013 183.56400795 -48.89402258 158.86210561 C-48.89306692 156.22947391 -48.89212381 153.59684221 -48.89119339 150.96421051 C-48.89073056 149.66887283 -48.89026774 148.37353516 -48.88979089 147.03894483 C-48.88719855 137.90248961 -48.89157711 128.76605288 -48.89863205 119.62960052 C-48.90703615 108.50133124 -48.90478961 97.37312546 -48.88878982 86.24486348 C-48.88089341 80.56516776 -48.87783894 74.88557801 -48.88773727 69.20588303 C-48.89665587 64.00990618 -48.89179817 58.81413386 -48.87580462 53.61817566 C-48.87244486 51.73547519 -48.87417757 49.85275755 -48.88143198 47.97006807 C-48.89052005 45.41623343 -48.88123303 42.86310457 -48.86726952 40.3093071 C-48.87429301 39.5738853 -48.88131651 38.8384635 -48.88855284 38.08075619 C-48.82162848 31.98023971 -47.1195241 28.10301154 -43.11474609 23.57128906 C-37.21489229 18.37379881 -37.21489229 18.37379881 -32.67724609 18.07128906 C-31.95537109 18.13316406 -31.23349609 18.19503906 -30.48974609 18.25878906 C-30.36599609 17.6903125 -30.24224609 17.12183594 -30.11474609 16.53613281 C-28.36644282 9.99092243 -25.41415229 5.70276754 -19.48974609 2.25878906 C-12.91563188 0.20631027 -6.85638195 -0.02644699 0 0 Z " fill="#7743E6" transform="translate(190.48974609375,89.7412109375)"/>
<path d="M0 0 C0.92453476 -0.01591187 1.84906952 -0.03182373 2.80162048 -0.04821777 C4.2892263 -0.0485199 4.2892263 -0.0485199 5.80688477 -0.04882812 C6.83258072 -0.05644165 7.85827667 -0.06405518 8.91505432 -0.07189941 C11.08283048 -0.08269795 13.25065865 -0.08555453 15.41845703 -0.08105469 C18.73306131 -0.08008259 22.04534921 -0.12170391 25.35961914 -0.16601562 C27.46703619 -0.17122286 29.57446128 -0.17391081 31.68188477 -0.17382812 C32.67159775 -0.19022339 33.66131073 -0.20661865 34.68101501 -0.22351074 C38.97377931 -0.18045098 41.6557067 0.05313386 45.44458008 2.17456055 C48.37902116 7.27758584 47.92577856 12.15929758 47.79907227 17.93945312 C47.79199753 19.15316086 47.78492279 20.36686859 47.77763367 21.61735535 C47.74966991 25.48967399 47.68692193 29.36054104 47.62329102 33.23242188 C47.59821097 35.8593541 47.5753973 38.48630902 47.55493164 41.11328125 C47.49983632 47.54932248 47.41618757 53.98451847 47.31079102 60.41992188 C47.94892731 60.41103943 48.5870636 60.40215698 49.24453735 60.39300537 C55.89559966 60.30440441 62.54649388 60.24413443 69.19799805 60.20019531 C71.67918713 60.18009946 74.16032897 60.15281804 76.64135742 60.11816406 C80.21097483 60.06955894 83.77996518 60.04693215 87.34985352 60.02929688 C88.45632233 60.00865173 89.56279114 59.98800659 90.70278931 59.96673584 C96.86947451 59.96494547 100.66102296 60.20070606 105.31079102 64.41992188 C106.44890891 66.69615766 106.44872441 67.98576289 106.47192383 70.51489258 C106.48153137 71.35949539 106.49113892 72.20409821 106.5010376 73.07429504 C106.50741241 74.44614204 106.50741241 74.44614204 106.51391602 75.84570312 C106.51961609 76.78544479 106.52531616 77.72518646 106.53118896 78.69340515 C106.54064575 80.68483349 106.54717563 82.67627753 106.55102539 84.66772461 C106.56071878 87.70975201 106.59173074 90.75110036 106.62329102 93.79296875 C106.62982226 95.72720953 106.63507226 97.66145514 106.63891602 99.59570312 C106.65126282 100.5041951 106.66360962 101.41268707 106.67633057 102.34870911 C106.65942203 107.16057717 106.54552851 110.56672189 103.31079102 114.41992188 C101.64412435 115.08658854 99.97745768 115.75325521 98.31079102 116.41992188 C96.61196654 118.91752169 96.61196654 118.91752169 95.31079102 121.41992188 C92.03187176 123.0593815 88.40465568 122.54022365 84.80297852 122.51757812 C83.9623587 122.51616318 83.12173889 122.51474823 82.25564575 122.51329041 C79.56565827 122.50768425 76.87575343 122.49513074 74.18579102 122.48242188 C72.36417763 122.47740767 70.54256295 122.47284462 68.72094727 122.46875 C64.25086324 122.45771282 59.78084115 122.44044407 55.31079102 122.41992188 C55.31079102 120.10992187 55.31079102 117.79992187 55.31079102 115.41992188 C51.84579102 115.91492188 51.84579102 115.91492188 48.31079102 116.41992188 C48.309366 117.08533493 48.30794098 117.75074799 48.30647278 118.43632507 C48.28678295 125.36348669 48.23252392 132.28976628 48.15820312 139.21655273 C48.13500929 141.8014493 48.1206242 144.38644055 48.11523438 146.97143555 C48.10595561 150.68793851 48.06498393 154.40294916 48.01782227 158.11914062 C48.02175491 159.27451828 48.02568756 160.42989594 48.02973938 161.62028503 C47.86719712 170.56319273 47.86719712 170.56319273 44.95410156 173.6887207 C42.31079102 175.41992188 42.31079102 175.41992188 39.31079102 175.41992188 C39.08391602 176.36867187 38.85704102 177.31742188 38.62329102 178.29492188 C37.31079102 181.41992188 37.31079102 181.41992188 35.35205078 182.59863281 C30.99897782 183.77417568 26.82820517 183.70521795 22.33813477 183.68554688 C21.37807022 183.68746033 20.41800568 183.68937378 19.42884827 183.69134521 C17.40406023 183.69270335 15.37926338 183.68903288 13.35449219 183.68066406 C10.25574208 183.66994764 7.15757016 183.68057806 4.05883789 183.69335938 C2.08943557 183.69203794 0.12003361 183.68947589 -1.84936523 183.68554688 C-2.77548111 183.68959534 -3.70159698 183.6936438 -4.65577698 183.69781494 C-5.95248573 183.68835846 -5.95248573 183.68835846 -7.27539062 183.67871094 C-8.03308243 183.67711975 -8.79077423 183.67552856 -9.57142639 183.67388916 C-12.04863463 183.37681908 -13.59989529 182.78250112 -15.68920898 181.41992188 C-19.06975279 174.82373884 -19.08744118 168.78561701 -18.98217773 161.48242188 C-18.97793289 160.36174316 -18.97368805 159.24106445 -18.96931458 158.08642578 C-18.95261209 154.53067314 -18.91497466 150.97550128 -18.87670898 147.41992188 C-18.86165129 144.99935718 -18.84796479 142.57878355 -18.83569336 140.15820312 C-18.80273619 134.2452468 -18.75262101 128.33262585 -18.68920898 122.41992188 C-19.34209396 122.43102493 -19.99497894 122.44212799 -20.66764832 122.4535675 C-27.46449093 122.56420751 -34.26107766 122.6396089 -41.05859375 122.69458008 C-43.59515778 122.71972027 -46.13164941 122.75383724 -48.66796875 122.79711914 C-52.31455349 122.85778849 -55.96018031 122.88613761 -59.60717773 122.90820312 C-60.74068161 122.93400955 -61.87418549 122.95981598 -63.04203796 122.98640442 C-70.89224486 122.98919937 -70.89224486 122.98919937 -74.88183594 120.1394043 C-78.05659087 115.36247668 -77.86138642 110.75261308 -77.89233398 105.14648438 C-77.89803406 104.34512054 -77.90373413 103.54375671 -77.90960693 102.71810913 C-77.91903669 101.02530225 -77.92558286 99.33247718 -77.92944336 97.63964844 C-77.93914896 95.06086981 -77.97019067 92.48288865 -78.00170898 89.90429688 C-78.00823981 88.25586408 -78.01348997 86.60742562 -78.01733398 84.95898438 C-78.02968079 84.19317047 -78.04202759 83.42735657 -78.05474854 82.63833618 C-78.03102672 76.8886606 -76.8948564 72.62556929 -72.68920898 68.41992188 C-71.36920898 68.41992188 -70.04920898 68.41992188 -68.68920898 68.41992188 C-68.56545898 67.63617188 -68.44170898 66.85242188 -68.31420898 66.04492188 C-67.68920898 63.41992188 -67.68920898 63.41992188 -65.68920898 61.41992188 C-62.62744489 60.37121821 -59.77209655 60.29842958 -56.5534668 60.30639648 C-55.53271057 60.30647202 -54.51195435 60.30654755 -53.46026611 60.30662537 C-52.36534851 60.31178665 -51.27043091 60.31694794 -50.14233398 60.32226562 C-48.45282623 60.32438805 -48.45282623 60.32438805 -46.72918701 60.32655334 C-43.13250063 60.33214988 -39.53587655 60.34470178 -35.93920898 60.35742188 C-33.5004078 60.36243732 -31.06160564 60.36700015 -28.62280273 60.37109375 C-22.6449169 60.38211818 -16.66706739 60.39885289 -10.68920898 60.41992188 C-10.68920898 58.10992187 -10.68920898 55.79992187 -10.68920898 53.41992188 C-13.32920898 53.41992188 -15.96920898 53.41992188 -18.68920898 53.41992188 C-18.76370752 48.27875897 -18.81797492 43.13791458 -18.85400391 37.99633789 C-18.86903328 36.24953737 -18.88946253 34.50277422 -18.91552734 32.75610352 C-18.95216979 30.23639672 -18.9689939 27.71719149 -18.98217773 25.19726562 C-18.99766159 24.42406479 -19.01314545 23.65086395 -19.02909851 22.85423279 C-19.030688 17.66165443 -18.23881328 13.98550958 -15.68920898 9.41992188 C-12.50170898 8.48242188 -12.50170898 8.48242188 -9.68920898 8.41992188 C-9.60670898 7.65679687 -9.52420898 6.89367187 -9.43920898 6.10742188 C-8.07798557 1.22970466 -4.78401013 0.04966481 0 0 Z " fill="#7843E6" transform="translate(470.689208984375,76.580078125)"/>
<path d="M0 0 C0.00021737 0.98859257 0.00043474 1.97718513 0.00065869 2.99573505 C0.01056721 46.56903491 0.02674598 90.14232975 0.07429504 133.71560669 C0.0750145 134.37539303 0.07573395 135.03517936 0.0764752 135.71495922 C0.0921483 150.05425135 0.10893069 164.39354198 0.12685562 178.73283147 C0.13563939 185.76492125 0.14417805 192.79701132 0.15258789 199.82910156 C0.15342894 200.5288752 0.15426999 201.22864883 0.15513652 201.94962772 C0.18227735 224.62708265 0.19323663 247.30451028 0.19579524 269.9819802 C0.1985873 293.94891092 0.21983726 317.91576183 0.26052457 341.88265908 C0.28430115 356.23934808 0.29331752 370.59589111 0.28351311 384.9525971 C0.27820148 394.79466023 0.29120735 404.63659245 0.3186629 414.47861831 C0.33396612 420.15879933 0.3411494 425.83868738 0.32659721 431.51887703 C0.31344925 436.72053293 0.32333366 441.92162094 0.35143773 447.12321283 C0.35754957 449.00358552 0.35525225 450.88400859 0.34362926 452.76435529 C0.04032631 466.70415719 0.04032631 466.70415719 6 479 C11.23203325 483.34374959 16.67272079 484.12303563 23.25500107 484.1386652 C25.19500681 484.14687687 25.19500681 484.14687687 27.17420459 484.15525442 C28.61269801 484.15633064 30.05119151 484.15731533 31.48968506 484.15821838 C33.01518994 484.16278375 34.54069357 484.16778374 36.06619573 484.17318195 C40.26433633 484.18677531 44.46246883 484.19418489 48.6606257 484.20060861 C53.18548805 484.20860728 57.71033351 484.2223069 62.23518372 484.23532104 C70.07685569 484.25709135 77.91852936 484.27523382 85.76021576 484.29092598 C97.09803745 484.31361955 108.43584043 484.3417631 119.77364627 484.37124526 C138.16761139 484.41892745 156.56158416 484.46218994 174.95556641 484.50268555 C192.82568965 484.54203728 210.69580609 484.58346273 228.56591797 484.62768555 C230.21764368 484.63177196 230.21764368 484.63177196 231.90273759 484.63594092 C237.42677743 484.64962034 242.95081717 484.66334063 248.47485685 484.67708123 C294.31655707 484.79105586 340.15827198 484.89786304 386 485 C385.20109853 490.23244478 384.5893922 494.0059995 380.19921875 497.38671875 C374.34315502 501.23561939 369.6427553 502.12360569 362.62868023 502.13142776 C361.33480221 502.13526891 360.0409242 502.13911005 358.70783776 502.1430676 C357.27386831 502.1422874 355.83989891 502.14140862 354.40592957 502.14044189 C352.88113893 502.14302617 351.35634898 502.14603951 349.83155996 502.1494453 C345.6397159 502.15751098 341.44788897 502.15930462 337.25603807 502.16004276 C332.73581698 502.16189404 328.21560476 502.16944168 323.69538879 502.17617798 C313.81116665 502.18975812 303.92694857 502.19578534 294.04271865 502.20018864 C287.87173804 502.20295124 281.70075899 502.20718859 275.52977943 502.21169281 C258.44579129 502.22388438 241.3618044 502.23418436 224.277812 502.2375679 C223.18448394 502.23778747 222.09115588 502.23800703 220.96469666 502.23823325 C219.86875008 502.23845153 218.7728035 502.23866981 217.64364642 502.2388947 C215.42283134 502.23933817 213.20201625 502.23978473 210.98120117 502.24023438 C209.8795997 502.2404558 208.77799822 502.24067723 207.64301489 502.24090537 C189.78817236 502.24485445 171.93337063 502.26231231 154.07854386 502.2855939 C135.74954418 502.30930102 117.42056496 502.32176944 99.09154969 502.32293582 C88.7995124 502.32385287 78.50752826 502.32961281 68.2155056 502.34775543 C59.45285828 502.36314768 50.69028055 502.368282 41.92762228 502.36001733 C37.45678071 502.35610791 32.98607934 502.35705471 28.51525497 502.37107468 C24.4212015 502.38379579 20.32739383 502.38263188 16.23334078 502.37048396 C14.75354377 502.36852388 13.27372946 502.37161981 11.79395678 502.38032833 C2.40921998 502.43205425 -4.23843707 501.96474673 -12.3125 496.9375 C-20.06561208 488.46316819 -18.42253373 475.73108234 -18.38095093 464.99481201 C-18.38441009 463.05179877 -18.38917638 461.1087875 -18.39513266 459.16578031 C-18.40763633 453.84116412 -18.40147513 448.5167096 -18.39217401 443.1920929 C-18.38538149 437.44430454 -18.39586564 431.69654383 -18.40411377 425.94876099 C-18.41745008 414.69575404 -18.41457409 403.44280714 -18.40587585 392.18979785 C-18.39910067 383.04629872 -18.39818186 373.90281641 -18.4014473 364.75931549 C-18.401907 363.45798294 -18.40236669 362.1566504 -18.40284032 360.81588353 C-18.40379949 358.17230325 -18.40477213 355.52872298 -18.4057581 352.88514271 C-18.41406754 328.80723711 -18.40545177 304.72936309 -18.38973031 280.65146262 C-18.37548728 258.67061901 -18.37677356 236.68982753 -18.39111328 214.70898438 C-18.40717433 190.00708662 -18.41349403 165.30521889 -18.40427649 140.60331655 C-18.40332083 137.97068485 -18.40237772 135.33805315 -18.4014473 132.70542145 C-18.40098447 131.41008377 -18.40052164 130.1147461 -18.40004479 128.78015576 C-18.39745245 119.64370055 -18.40183102 110.50726381 -18.40888596 101.37081146 C-18.41729005 90.24254218 -18.41504351 79.1143364 -18.39904372 67.98607442 C-18.39114732 62.3063787 -18.38809285 56.62678895 -18.39799118 50.94709396 C-18.40690978 45.75111712 -18.40205208 40.5553448 -18.38605852 35.35938659 C-18.38269877 33.47668613 -18.38443148 31.59396849 -18.39168589 29.711279 C-18.40077396 27.15744437 -18.39148693 24.60431551 -18.37752342 22.05051804 C-18.38454692 21.31509624 -18.39157042 20.57967443 -18.39880675 19.82196712 C-18.33188239 13.72145065 -16.629778 9.84422248 -12.625 5.3125 C-8.33452051 1.53279188 -5.74125953 -0.18180655 0 0 Z " fill="#FD00FE" transform="translate(160,108)"/>
<path d="M0 0 C1.83549408 -0.01248528 1.83549408 -0.01248528 3.70806885 -0.02522278 C7.04919853 -0.04513156 10.3900796 -0.05595255 13.73124719 -0.06104922 C15.82340261 -0.0647048 17.9155345 -0.07095099 20.00768089 -0.07805061 C27.3200726 -0.1025086 34.63239372 -0.11558924 41.94482422 -0.11914062 C48.73926142 -0.12277388 55.53324639 -0.15266313 62.32754546 -0.19454521 C68.17919006 -0.22933985 74.03068539 -0.24469063 79.88243264 -0.24538666 C83.36933972 -0.24617632 86.85578532 -0.25476986 90.34258461 -0.28338432 C94.23637702 -0.31462768 98.12952864 -0.3054615 102.0234375 -0.29296875 C103.16403122 -0.30780304 104.30462494 -0.32263733 105.4797821 -0.33792114 C112.80123161 -0.27125249 118.6691634 0.96415409 124.70581055 5.30639648 C126.56613251 7.59948338 127.51272845 9.55712034 128.70581055 12.30639648 C129.03581055 12.96639648 129.36581055 13.62639648 129.70581055 14.30639648 C129.80068136 16.23979805 129.82953853 18.17654841 129.82885838 20.11227608 C129.83084942 21.356347 129.83284047 22.60041792 129.83489186 23.88218796 C129.83203844 25.27547291 129.82909284 26.66875766 129.82606506 28.06204224 C129.82650076 29.53219747 129.82737565 31.00235262 129.82865423 32.47250736 C129.83089944 36.52695878 129.82687754 40.58138399 129.82187617 44.63583207 C129.81757224 49.00257255 129.81901805 53.36931146 129.81977844 57.73605347 C129.82030371 65.30657427 129.81715658 72.87708649 129.8115406 80.44760513 C129.80342604 91.39340962 129.80081043 102.33920994 129.79955261 113.28501712 C129.79736203 131.04230869 129.79070175 148.79959568 129.78125 166.55688477 C129.77207606 183.81013974 129.76499514 201.06339347 129.76074219 218.31665039 C129.76047946 219.37949537 129.76021674 220.44234035 129.75994606 221.53739275 C129.75864105 226.86918084 129.75737734 232.20096894 129.75613415 237.53275704 C129.74576133 281.79064093 129.72732291 326.04851634 129.70581055 370.30639648 C155.44581055 370.30639648 181.18581055 370.30639648 207.70581055 370.30639648 C207.70581055 375.91639648 207.70581055 381.52639648 207.70581055 387.30639648 C176.02581055 387.30639648 144.34581055 387.30639648 111.70581055 387.30639648 C111.68393677 371.33696655 111.68393677 371.33696655 111.66162109 355.04492188 C111.61286453 320.98180085 111.54945568 286.9187212 111.47682426 252.85564304 C111.46555609 247.56473231 111.45441764 242.27382132 111.44335938 236.98291016 C111.44005385 235.40292083 111.44005385 235.40292083 111.43668155 233.79101252 C111.40130808 216.73517023 111.37644422 199.67932799 111.35546353 182.62346262 C111.33370189 165.12288775 111.30064798 147.62236049 111.25710899 130.12182611 C111.23059858 119.3228593 111.2128987 108.52395181 111.20646451 97.72495406 C111.20120878 90.31992202 111.18498551 82.91496462 111.16014489 75.50997258 C111.14613632 71.23753404 111.1369567 66.96522912 111.14080238 62.69276619 C111.14421876 58.77853628 111.13381252 54.86459149 111.11257503 50.95041995 C111.10731741 49.53708919 111.10706144 48.12372873 111.11241492 46.71039832 C111.4104068 34.48838209 111.4104068 34.48838209 106.36020011 23.73040444 C98.3230049 16.57545486 88.28493495 17.15553453 78.17089844 17.10107422 C77.0287085 17.09117462 75.88651855 17.08127502 74.7097168 17.07107544 C70.94932093 17.03958821 67.18891245 17.01475361 63.4284668 16.98999023 C60.81529927 16.96940968 58.20213498 16.94841292 55.588974 16.92701721 C49.42331191 16.87723464 43.25762465 16.83224268 37.09191364 16.78899485 C30.06888064 16.73949856 23.0458928 16.68462665 16.02290356 16.62931526 C1.58391537 16.51571703 -12.85511779 16.40883031 -27.29418945 16.30639648 C-25.16613035 7.35760621 -25.16613035 7.35760621 -22.60668945 4.93139648 C-22.14907227 4.46991211 -21.69145508 4.00842773 -21.2199707 3.53295898 C-14.81090668 -0.54908179 -7.30971533 0.00423713 0 0 Z " fill="#01FDFE" transform="translate(206.294189453125,73.693603515625)"/>
<path d="M0 0 C1.1475325 -0.00700928 2.295065 -0.01401855 3.47737122 -0.02124023 C7.24883638 -0.03876236 11.01954359 -0.02721713 14.79101562 -0.01367188 C17.42460269 -0.01636843 20.05818879 -0.0202522 22.69177246 -0.02526855 C28.20263796 -0.032525 33.71328833 -0.0230103 39.22412109 -0.00390625 C45.57552951 0.01785892 51.92642413 0.0108061 58.27782011 -0.01121187 C64.41333486 -0.03162187 70.54862367 -0.02937167 76.68415833 -0.01768494 C79.28359551 -0.01502335 81.88304587 -0.01826731 84.48246765 -0.02760315 C88.12017163 -0.03780192 91.75689964 -0.02221913 95.39453125 0 C96.46077225 -0.00809692 97.52701324 -0.01619385 98.62556458 -0.02453613 C106.70722679 0.06656013 112.74564348 1.80034367 119.13476562 6.83007812 C123.62471971 12.68062436 123.48798544 19.17291041 123.45796204 26.25154114 C123.46178758 27.21418481 123.46561313 28.17682848 123.4695546 29.16864318 C123.47984957 32.38502711 123.47589906 35.60123136 123.47192383 38.81762695 C123.47627227 41.12752955 123.48145586 43.4374307 123.4874115 45.74732971 C123.50079936 52.01599802 123.50138033 58.28460602 123.4988482 64.55328584 C123.49777822 69.78928604 123.50266262 75.02527406 123.50745362 80.26127166 C123.51918257 93.32259661 123.51832417 106.38388724 123.51189681 119.44521441 C123.50672998 130.77386897 123.51797808 142.10243748 123.53699503 153.43107501 C123.55639437 165.07726209 123.56433457 176.72340482 123.56087178 188.3696081 C123.55905997 194.90243482 123.56168493 201.43518275 123.57558632 207.9679966 C123.5881738 214.11332736 123.58621165 220.25848615 123.57317543 226.40381432 C123.57081202 228.65558811 123.57353584 230.90737404 123.58179855 233.15913391 C123.5922876 236.240509 123.58414767 239.32130934 123.57148743 242.40266418 C123.57886171 243.28702473 123.586236 244.17138528 123.59383374 245.08254462 C123.5303785 252.45846214 122.48900753 259.62274625 117.82226562 265.51757812 C113.53191056 268.78642008 110.51850604 269.6151342 105.19726562 269.51757812 C105.19230041 267.71056632 105.19230041 267.71056632 105.18723488 265.86704922 C105.10820362 237.26539481 105.01897852 208.66378423 104.91721401 180.06220191 C104.90469526 176.54122407 104.89226247 173.02024592 104.87988281 169.49926758 C104.87741682 168.79830928 104.87495082 168.09735098 104.8724101 167.37515152 C104.83269508 156.02790624 104.79994218 144.68065102 104.76976581 133.33337682 C104.73864299 121.68853494 104.69988259 110.04373704 104.65447557 98.39894205 C104.62921558 91.85887346 104.60743271 85.31883469 104.59392166 78.77873039 C104.58109693 72.62365773 104.55903777 66.46868741 104.52988243 60.31367111 C104.52080994 58.05420475 104.51511719 55.7947219 104.51305199 53.53523827 C104.50972721 50.45033208 104.49424348 47.36571564 104.47573853 44.28086853 C104.47864063 42.93989409 104.47864063 42.93989409 104.48160136 41.57182926 C104.426287 35.40329434 103.79408778 30.26411223 100.63476562 24.83007812 C93.99334493 18.52924311 86.30924331 17.92969907 77.52709961 17.97167969 C76.39437119 17.96134201 75.26164276 17.95100433 74.09458923 17.94035339 C70.37736578 17.91102529 66.66068921 17.90942827 62.94335938 17.90820312 C60.35546334 17.89321483 57.76757684 17.87648632 55.17970276 17.85809326 C49.08135085 17.81893051 42.98316933 17.79722455 36.88471323 17.78411937 C29.9365368 17.76820332 22.98854053 17.72976861 16.04046905 17.68952608 C1.75946673 17.6073121 -12.52154337 17.55310471 -26.80273438 17.51757812 C-25.92812869 11.86812406 -24.79682491 8.61668782 -20.80273438 4.51757812 C-14.19532597 0.2728967 -7.65666614 -0.05814393 0 0 Z " fill="#02FCFE" transform="translate(459.802734375,305.482421875)"/>
<path d="M0 0 C0 33.99 0 67.98 0 103 C-5.94 103 -11.88 103 -18 103 C-18.06783962 91.64712713 -18.12285305 80.29438941 -18.15543652 68.94135952 C-18.17107676 63.66940707 -18.19228521 58.39760077 -18.22631836 53.12573242 C-18.25897012 48.03585948 -18.27686536 42.94612692 -18.28463173 37.8561573 C-18.29016478 35.91653293 -18.30096949 33.97691604 -18.31719017 32.03735161 C-18.3390417 29.31566784 -18.34196369 26.59456044 -18.34057617 23.87280273 C-18.351362 23.07510468 -18.36214783 22.27740662 -18.3732605 21.45553589 C-18.32898869 13.4034185 -15.5326927 7.80258015 -10 2 C-6.3822517 -0.56743428 -4.95246072 0 0 0 Z " fill="#FD01FE" transform="translate(414,341)"/>
<path d="M0 0 C0.99 0 1.98 0 3 0 C3.01458252 1.1144751 3.02916504 2.2289502 3.04418945 3.37719727 C3.1024208 7.5353916 3.17965114 11.69305841 3.26245117 15.85083008 C3.29558413 17.64599 3.32365187 19.44125117 3.34643555 21.23657227 C3.38019664 23.82612012 3.43252125 26.41474971 3.48828125 29.00390625 C3.49467117 29.79898087 3.5010611 30.59405548 3.50764465 31.41322327 C3.64315202 36.61783009 4.46821242 40.4117184 7 45 C9.96892711 45.98964237 12.01149908 46.15273727 15.11401367 46.20532227 C16.67529243 46.2352401 16.67529243 46.2352401 18.26811218 46.26576233 C19.39006485 46.28247482 20.51201752 46.29918732 21.66796875 46.31640625 C22.81791824 46.33718735 23.96786774 46.35796844 25.15266418 46.37937927 C28.83088125 46.44483342 32.50917048 46.50374074 36.1875 46.5625 C38.67904396 46.60568913 41.17058059 46.64930355 43.66210938 46.69335938 C49.77466301 46.80051061 55.88728864 46.90228483 62 47 C62.00586624 47.6233876 62.01173248 48.24677521 62.01777649 48.88905334 C62.08185723 55.39467345 62.16631486 61.89980559 62.26245117 68.4050293 C62.29564466 70.83074498 62.32369384 73.25653686 62.34643555 75.68237305 C62.38008331 79.17529684 62.43240631 82.66752585 62.48828125 86.16015625 C62.49467117 87.23959 62.5010611 88.31902374 62.50764465 89.4311676 C62.62246641 95.35104547 63.02727871 99.81954763 66 105 C69.08039853 107.05359902 69.79484698 107.25738734 73.2878418 107.31884766 C74.14850754 107.33871735 75.00917328 107.35858704 75.8959198 107.37905884 C77.28355278 107.39638565 77.28355278 107.39638565 78.69921875 107.4140625 C79.64940384 107.43342865 80.59958893 107.4527948 81.5785675 107.4727478 C84.6147869 107.53254912 87.65104419 107.57893129 90.6875 107.625 C92.74545928 107.66317926 94.80340258 107.70223096 96.86132812 107.7421875 C101.9074223 107.83825119 106.95359129 107.92228031 112 108 C111.14661838 110.94804559 110.62110593 112.59789849 107.99829102 114.29589844 C103.66114967 115.31440798 99.46844888 115.28508156 95.02734375 115.265625 C94.06727921 115.26753845 93.10721466 115.2694519 92.11805725 115.27142334 C90.09326922 115.27278148 88.06847237 115.26911101 86.04370117 115.26074219 C82.94495107 115.25002577 79.84677915 115.26065618 76.74804688 115.2734375 C74.77864455 115.27211607 72.80924259 115.26955402 70.83984375 115.265625 C69.91372787 115.26967346 68.987612 115.27372192 68.03343201 115.27789307 C66.73672325 115.26843658 66.73672325 115.26843658 65.41381836 115.25878906 C64.65612656 115.25719788 63.89843475 115.25560669 63.11778259 115.25396729 C60.64057435 114.9568972 59.08931369 114.36257924 57 113 C53.61945619 106.40381696 53.6017678 100.36569514 53.70703125 93.0625 C53.71127609 91.94182129 53.71552094 90.82114258 53.71989441 89.66650391 C53.73659689 86.11075126 53.77423432 82.55557941 53.8125 79 C53.82755769 76.57943531 53.8412442 74.15886167 53.85351562 71.73828125 C53.8864728 65.82532492 53.93658798 59.91270397 54 54 C53.34711502 54.01110306 52.69423004 54.02220612 52.02156067 54.03364563 C45.22471805 54.14428563 38.42813132 54.21968702 31.63061523 54.2746582 C29.0940512 54.29979839 26.55755958 54.33391537 24.02124023 54.37719727 C20.37465549 54.43786661 16.72902868 54.46621574 13.08203125 54.48828125 C11.94852737 54.51408768 10.8150235 54.5398941 9.64717102 54.56648254 C1.79696412 54.5692775 1.79696412 54.5692775 -2.19262695 51.71948242 C-5.36738188 46.94255481 -5.17217744 42.33269121 -5.203125 36.7265625 C-5.20882507 35.92519867 -5.21452515 35.12383484 -5.22039795 34.29818726 C-5.22982771 32.60538038 -5.23637388 30.91255531 -5.24023438 29.21972656 C-5.24993998 26.64094793 -5.28098169 24.06296677 -5.3125 21.484375 C-5.31903083 19.83594221 -5.32428099 18.18750375 -5.328125 16.5390625 C-5.3404718 15.7732486 -5.3528186 15.00743469 -5.36553955 14.21841431 C-5.34181773 8.46873873 -4.20564742 4.20564742 0 0 Z " fill="#FD0AFC" transform="translate(398,145)"/>
<path d="M0 0 C1.41694656 -0.0238678 1.41694656 -0.0238678 2.86251831 -0.04821777 C4.39067673 -0.0485199 4.39067673 -0.0485199 5.94970703 -0.04882812 C6.99901398 -0.05644165 8.04832092 -0.06405518 9.12942505 -0.07189941 C11.35025655 -0.08270989 13.57113893 -0.08554969 15.79199219 -0.08105469 C19.1878771 -0.08008374 22.58149306 -0.1216679 25.97705078 -0.16601562 C28.13459815 -0.17122356 30.29215338 -0.1739108 32.44970703 -0.17382812 C33.97179276 -0.19842102 33.97179276 -0.19842102 35.52462769 -0.22351074 C39.87573224 -0.18093282 42.63892475 0.03352813 46.48217773 2.17456055 C49.39363808 7.28104457 48.94735623 12.16617877 48.82080078 17.93945312 C48.81372604 19.15316086 48.80665131 20.36686859 48.79936218 21.61735535 C48.77139842 25.48967399 48.70865044 29.36054104 48.64501953 33.23242188 C48.61993949 35.8593541 48.59712582 38.48630902 48.57666016 41.11328125 C48.52156483 47.54932248 48.43791608 53.98451847 48.33251953 60.41992188 C48.97065582 60.41103943 49.60879211 60.40215698 50.26626587 60.39300537 C56.91732818 60.30440441 63.5682224 60.24413443 70.21972656 60.20019531 C72.70091564 60.18009946 75.18205748 60.15281804 77.66308594 60.11816406 C81.23270335 60.06955894 84.80169369 60.04693215 88.37158203 60.02929688 C89.47805084 60.00865173 90.58451965 59.98800659 91.72451782 59.96673584 C97.89120303 59.96494547 101.68275147 60.20070606 106.33251953 64.41992188 C107.47474398 66.70437077 107.46483605 67.99219668 107.4777832 70.53076172 C107.48416306 71.37859222 107.49054291 72.22642273 107.49711609 73.09994507 C107.49822891 74.01764679 107.49934174 74.93534851 107.50048828 75.88085938 C107.50548088 77.29402939 107.50548088 77.29402939 107.51057434 78.73574829 C107.51564296 80.7313793 107.51798269 82.72701881 107.51782227 84.72265625 C107.52000566 87.77553302 107.53815356 90.82804673 107.55712891 93.88085938 C107.56006345 95.81835814 107.56204784 97.75585862 107.56298828 99.69335938 C107.5701738 100.60701263 107.57735931 101.52066589 107.58476257 102.46200562 C107.58168594 103.31614044 107.57860931 104.17027527 107.57543945 105.05029297 C107.57686447 105.79926849 107.57828949 106.54824402 107.57975769 107.31991577 C107.28981138 109.78267893 106.68884586 111.34540426 105.33251953 113.41992188 C102.20751953 114.66992188 102.20751953 114.66992188 99.33251953 115.41992188 C99.32317383 114.16856445 99.31382812 112.91720703 99.30419922 111.62792969 C99.26431472 106.98336237 99.19856012 102.33945853 99.125 97.6953125 C99.09678146 95.6856336 99.07557132 93.67584353 99.06152344 91.66601562 C99.04010618 88.77611338 98.9934625 85.88754897 98.94189453 82.99804688 C98.94066589 82.09999329 98.93943726 81.2019397 98.93817139 80.27667236 C98.85786942 75.21119819 98.85786942 75.21119819 96.41943359 70.88378906 C93.15654466 68.59503356 91.28631841 68.28145954 87.33203125 68.21459961 C86.29110321 68.19465439 85.25017517 68.17470917 84.17770386 68.15415955 C83.0505899 68.13744705 81.92347595 68.12073456 80.76220703 68.10351562 C79.61084259 68.08273453 78.45947815 68.06195343 77.27322388 68.0405426 C73.58471813 67.97500522 69.8961395 67.9161426 66.20751953 67.85742188 C63.71141816 67.81424065 61.21532423 67.77062649 58.71923828 67.7265625 C52.59040972 67.61931956 46.4615082 67.51756099 40.33251953 67.41992188 C40.32705109 66.39967926 40.32705109 66.39967926 40.32147217 65.35882568 C40.27969395 58.28590606 40.21038082 51.21363819 40.125 44.14111328 C40.096757 41.50088008 40.07555916 38.8605618 40.06152344 36.22021484 C40.04014097 32.42696467 39.99351162 28.63474109 39.94189453 24.84179688 C39.94066589 23.65938416 39.93943726 22.47697144 39.93817139 21.25872803 C39.91845276 20.15788879 39.89873413 19.05704956 39.87841797 17.92285156 C39.86953552 16.95466492 39.86065308 15.98647827 39.85150146 14.98895264 C39.1753821 11.64207033 38.03933038 10.45624369 35.33251953 8.41992188 C33.17049194 7.81365037 33.17049194 7.81365037 30.83935547 7.87402344 C29.95874451 7.85430481 29.07813354 7.83458618 28.1708374 7.81427002 C27.22903625 7.81304138 26.28723511 7.81181274 25.31689453 7.81054688 C24.34592834 7.79401062 23.37496216 7.77747437 22.37457275 7.76043701 C19.2771577 7.71190069 16.1802338 7.6905733 13.08251953 7.66992188 C10.98093225 7.64176695 8.8793679 7.6118402 6.77783203 7.58007812 C1.62943495 7.50613998 -3.51868855 7.45659959 -8.66748047 7.41992188 C-7.72961653 1.98031105 -5.47842411 0.05550595 0 0 Z " fill="#07FDFD" transform="translate(477.66748046875,69.580078125)"/>
<path d="M0 0 C1.134375 0.020625 2.26875 0.04125 3.4375 0.0625 C3.56436439 6.80668027 3.65187811 13.55055244 3.7121582 20.2956543 C3.73728928 22.58971658 3.77139969 24.8836989 3.81469727 27.17749023 C3.87540832 30.47660049 3.90372437 33.77465146 3.92578125 37.07421875 C3.95158768 38.09835373 3.9773941 39.12248871 4.00398254 40.17765808 C4.00586744 44.97216499 4.00201043 47.29470229 1.09448242 51.24926758 C-1.5625 53.0625 -1.5625 53.0625 -4.5625 53.0625 C-4.58776692 45.67521898 -4.6053316 38.28794902 -4.61743164 30.90063477 C-4.62247363 28.38533105 -4.62930703 25.87003028 -4.63793945 23.35473633 C-4.65001094 19.74820225 -4.65572949 16.14170677 -4.66015625 12.53515625 C-4.66531754 11.40288101 -4.67047882 10.27060577 -4.67579651 9.10401917 C-4.67587204 8.06301559 -4.67594757 7.02201202 -4.67602539 5.94946289 C-4.678246 5.02790909 -4.68046661 4.10635529 -4.68275452 3.15687561 C-4.47493153 -0.46260916 -3.76942864 0.06613033 0 0 Z " fill="#0CFDFD" transform="translate(522.5625,191.9375)"/>
<path d="M0 0 C0 14.85 0 29.7 0 45 C-2.64 45 -5.28 45 -8 45 C-8.07449853 39.8588371 -8.12876593 34.71799271 -8.16479492 29.57641602 C-8.17982429 27.8296155 -8.20025354 26.08285235 -8.22631836 24.33618164 C-8.2629608 21.81647485 -8.27978492 19.29726961 -8.29296875 16.77734375 C-8.30845261 16.00414291 -8.32393646 15.23094208 -8.33988953 14.43431091 C-8.34148246 9.23048327 -7.45934124 5.6133669 -5 1 C-3 0 -3 0 0 0 Z " fill="#FD0FFA" transform="translate(460,85)"/>
<path d="M0 0 C1.35106087 0.00022659 1.35106087 0.00022659 2.72941589 0.00045776 C3.69825211 0.01078033 4.66708832 0.02110291 5.6652832 0.03173828 C7.15714897 0.03598312 7.15714897 0.03598312 8.67915344 0.04031372 C11.85824576 0.05151589 15.03705717 0.07662064 18.21606445 0.10205078 C20.37035726 0.11208053 22.52465448 0.12120639 24.67895508 0.12939453 C29.96225417 0.15145532 35.24538925 0.18493322 40.52856445 0.22705078 C40.52856445 2.53705078 40.52856445 4.84705078 40.52856445 7.22705078 C24.02856445 7.22705078 7.52856445 7.22705078 -9.47143555 7.22705078 C-7.18632572 1.51427621 -5.93204994 -0.03323277 0 0 Z " fill="#09FEFD" transform="translate(419.471435546875,129.77294921875)"/>
<path d="M0 0 C14.19 0 28.38 0 43 0 C41 5 41 5 38 7 C35.09815132 7.17207928 32.29455753 7.23201104 29.39453125 7.1953125 C28.55532639 7.1924826 27.71612152 7.18965271 26.85148621 7.18673706 C24.17167897 7.17554385 21.49220619 7.15044101 18.8125 7.125 C16.99544754 7.11496908 15.17838983 7.10584343 13.36132812 7.09765625 C8.90742325 7.07560734 4.45376833 7.04108351 0 7 C0 4.69 0 2.38 0 0 Z " fill="#FA03FC" transform="translate(526,192)"/>
</svg>
